<svg width="56" height="56" viewBox="0 0 56 56" fill="none" xmlns="http://www.w3.org/2000/svg">
<g clip-path="url(#clip0_444_2328)">
<g filter="url(#filter0_d_444_2328)">
<path fill-rule="evenodd" clip-rule="evenodd" d="M13.3806 9.28615V46.0584C13.3805 47.1675 13.8902 48.1952 14.723 48.7648C15.5558 49.3343 16.5891 49.3621 17.4444 48.8378L47.4732 30.4517C48.3695 29.9026 48.9288 28.8345 48.9288 27.6723C48.9288 26.51 48.3695 25.4419 47.4732 24.8928L17.4444 6.50668C16.5891 5.98242 15.5558 6.01016 14.723 6.57974C13.8902 7.14932 13.3805 8.17699 13.3806 9.28615Z" stroke="url(#paint0_linear_444_2328)" stroke-width="1.5" stroke-linecap="round" stroke-linejoin="round"/>
</g>
<g filter="url(#filter1_d_444_2328)">
<path fill-rule="evenodd" clip-rule="evenodd" d="M12.2083 45.4207L48.6377 40.4115C49.7365 40.2605 50.6852 39.6155 51.136 38.7129C51.5868 37.8103 51.4736 36.7828 50.8377 36.007L28.5324 8.76265C27.8663 7.94952 26.732 7.54087 25.5805 7.6992C24.4291 7.85752 23.4472 8.55716 23.0253 9.5199L8.90113 41.7734C8.49826 42.6921 8.6665 43.712 9.34422 44.4594C10.0219 45.2069 11.1095 45.5719 12.2083 45.4207Z" stroke="url(#paint1_linear_444_2328)" stroke-width="1.5" stroke-linecap="round" stroke-linejoin="round"/>
</g>
</g>
<defs>
<filter id="filter0_d_444_2328" x="5.07942" y="2.44261" width="52.1519" height="58.4593" filterUnits="userSpaceOnUse" color-interpolation-filters="sRGB">
<feFlood flood-opacity="0" result="BackgroundImageFix"/>
<feColorMatrix in="SourceAlpha" type="matrix" values="0 0 0 0 0 0 0 0 0 0 0 0 0 0 0 0 0 0 127 0" result="hardAlpha"/>
<feOffset dy="4"/>
<feGaussianBlur stdDeviation="2"/>
<feColorMatrix type="matrix" values="0 0 0 0 0 0 0 0 0 0 0 0 0 0 0 0 0 0 0.25 0"/>
<feBlend mode="normal" in2="BackgroundImageFix" result="effect1_dropShadow_444_2328"/>
<feBlend mode="normal" in="SourceGraphic" in2="effect1_dropShadow_444_2328" result="shape"/>
</filter>
<filter id="filter1_d_444_2328" x="-4" y="0" width="64.0034" height="58.614" filterUnits="userSpaceOnUse" color-interpolation-filters="sRGB">
<feFlood flood-opacity="0" result="BackgroundImageFix"/>
<feColorMatrix in="SourceAlpha" type="matrix" values="0 0 0 0 0 0 0 0 0 0 0 0 0 0 0 0 0 0 127 0" result="hardAlpha"/>
<feOffset dy="4"/>
<feGaussianBlur stdDeviation="2"/>
<feColorMatrix type="matrix" values="0 0 0 0 0 0 0 0 0 0 0 0 0 0 0 0 0 0 0.25 0"/>
<feBlend mode="normal" in2="BackgroundImageFix" result="effect1_dropShadow_444_2328"/>
<feBlend mode="normal" in="SourceGraphic" in2="effect1_dropShadow_444_2328" result="shape"/>
</filter>
<linearGradient id="paint0_linear_444_2328" x1="14.283" y1="6.13215" x2="55.2841" y2="41.0114" gradientUnits="userSpaceOnUse">
<stop stop-color="#0FEFFD"/>
<stop offset="0.515718" stop-color="#FF00F5"/>
<stop offset="0.776042" stop-color="#0FEFFD" stop-opacity="0"/>
</linearGradient>
<linearGradient id="paint1_linear_444_2328" x1="8.96073" y1="44.9563" x2="37.9296" y2="-0.413882" gradientUnits="userSpaceOnUse">
<stop stop-color="#0FEFFD"/>
<stop offset="0.515718" stop-color="#FF00F5"/>
<stop offset="0.776042" stop-color="#0FEFFD" stop-opacity="0"/>
</linearGradient>
<clipPath id="clip0_444_2328">
<rect width="56" height="56" fill="white"/>
</clipPath>
</defs>
</svg>
