<svg width="18" height="18" viewBox="0 0 18 18" fill="none" xmlns="http://www.w3.org/2000/svg">
<path d="M1 17V1" stroke="white" stroke-width="1.5" stroke-linecap="round" stroke-linejoin="round"/>
<path d="M17 1V17" stroke="white" stroke-width="1.5" stroke-linecap="round" stroke-linejoin="round"/>
<path d="M5.26666 1H12.7333V7.4H5.26666V1Z" stroke="white" stroke-width="1.5" stroke-linecap="round" stroke-linejoin="round"/>
<path d="M5.26666 10.6H12.7333V17H5.26666V10.6Z" stroke="white" stroke-width="1.5" stroke-linecap="round" stroke-linejoin="round"/>
<path d="M3.4 2.59999C3.4 2.65274 3.38436 2.70429 3.35506 2.74815C3.32576 2.792 3.28411 2.82618 3.23538 2.84636C3.18666 2.86655 3.13304 2.87183 3.08131 2.86154C3.02958 2.85125 2.98207 2.82585 2.94477 2.78856C2.90748 2.75126 2.88208 2.70375 2.87179 2.65202C2.8615 2.60029 2.86678 2.54667 2.88697 2.49795C2.90715 2.44922 2.94133 2.40757 2.98518 2.37827C3.02904 2.34897 3.08059 2.33333 3.13334 2.33333C3.20406 2.33333 3.27189 2.36142 3.3219 2.41143C3.37191 2.46144 3.4 2.52927 3.4 2.59999Z" stroke="white" stroke-width="1.5" stroke-linecap="round" stroke-linejoin="round"/>
<path d="M3.4 6.86667C3.4 6.91941 3.38436 6.97097 3.35506 7.01482C3.32576 7.05868 3.28411 7.09286 3.23538 7.11304C3.18666 7.13322 3.13304 7.1385 3.08131 7.12822C3.02958 7.11793 2.98207 7.09253 2.94477 7.05523C2.90748 7.01794 2.88208 6.97043 2.87179 6.9187C2.8615 6.86697 2.86678 6.81335 2.88697 6.76462C2.90715 6.7159 2.94133 6.67425 2.98518 6.64495C3.02904 6.61565 3.08059 6.60001 3.13334 6.60001C3.20406 6.60001 3.27189 6.6281 3.3219 6.67811C3.37191 6.72812 3.4 6.79595 3.4 6.86667Z" stroke="white" stroke-width="1.5" stroke-linecap="round" stroke-linejoin="round"/>
<path d="M3.4 11.1333C3.4 11.1861 3.38436 11.2376 3.35506 11.2815C3.32576 11.3253 3.28411 11.3595 3.23538 11.3797C3.18666 11.3999 3.13304 11.4052 3.08131 11.3949C3.02958 11.3846 2.98207 11.3592 2.94477 11.3219C2.90748 11.2846 2.88208 11.2371 2.87179 11.1854C2.8615 11.1336 2.86678 11.08 2.88697 11.0313C2.90715 10.9826 2.94133 10.9409 2.98518 10.9116C3.02904 10.8823 3.08059 10.8667 3.13334 10.8667C3.20406 10.8667 3.27189 10.8948 3.3219 10.9448C3.37191 10.9948 3.4 11.0626 3.4 11.1333Z" stroke="white" stroke-width="1.5" stroke-linecap="round" stroke-linejoin="round"/>
<path d="M3.4 15.4C3.4 15.4527 3.38436 15.5043 3.35506 15.5482C3.32576 15.592 3.28411 15.6262 3.23538 15.6464C3.18666 15.6665 3.13304 15.6718 3.08131 15.6615C3.02958 15.6513 2.98207 15.6259 2.94477 15.5886C2.90748 15.5513 2.88208 15.5037 2.87179 15.452C2.8615 15.4003 2.86678 15.3467 2.88697 15.2979C2.90715 15.2492 2.94133 15.2076 2.98518 15.1783C3.02904 15.149 3.08059 15.1333 3.13334 15.1333C3.20406 15.1333 3.27189 15.1614 3.3219 15.2114C3.37191 15.2614 3.4 15.3293 3.4 15.4Z" stroke="white" stroke-width="1.5" stroke-linecap="round" stroke-linejoin="round"/>
<path d="M15.1333 2.59999C15.1333 2.65274 15.1177 2.70429 15.0884 2.74815C15.0591 2.792 15.0174 2.82618 14.9687 2.84636C14.92 2.86655 14.8664 2.87183 14.8146 2.86154C14.7629 2.85125 14.7154 2.82585 14.6781 2.78856C14.6408 2.75126 14.6154 2.70375 14.6051 2.65202C14.5948 2.60029 14.6001 2.54667 14.6203 2.49795C14.6405 2.44922 14.6747 2.40757 14.7185 2.37827C14.7624 2.34897 14.8139 2.33333 14.8667 2.33333C14.9374 2.33333 15.0052 2.36142 15.0552 2.41143C15.1052 2.46144 15.1333 2.52927 15.1333 2.59999Z" stroke="white" stroke-width="1.5" stroke-linecap="round" stroke-linejoin="round"/>
<path d="M15.1333 6.86667C15.1333 6.91941 15.1177 6.97097 15.0884 7.01482C15.0591 7.05868 15.0174 7.09286 14.9687 7.11304C14.92 7.13322 14.8664 7.1385 14.8146 7.12822C14.7629 7.11793 14.7154 7.09253 14.6781 7.05523C14.6408 7.01794 14.6154 6.97043 14.6051 6.9187C14.5948 6.86697 14.6001 6.81335 14.6203 6.76462C14.6405 6.7159 14.6747 6.67425 14.7185 6.64495C14.7624 6.61565 14.8139 6.60001 14.8667 6.60001C14.9374 6.60001 15.0052 6.6281 15.0552 6.67811C15.1052 6.72812 15.1333 6.79595 15.1333 6.86667Z" stroke="white" stroke-width="1.5" stroke-linecap="round" stroke-linejoin="round"/>
<path d="M15.1333 11.1333C15.1333 11.1861 15.1177 11.2376 15.0884 11.2815C15.0591 11.3253 15.0174 11.3595 14.9687 11.3797C14.92 11.3999 14.8664 11.4052 14.8146 11.3949C14.7629 11.3846 14.7154 11.3592 14.6781 11.3219C14.6408 11.2846 14.6154 11.2371 14.6051 11.1854C14.5948 11.1336 14.6001 11.08 14.6203 11.0313C14.6405 10.9826 14.6747 10.9409 14.7185 10.9116C14.7624 10.8823 14.8139 10.8667 14.8667 10.8667C14.9374 10.8667 15.0052 10.8948 15.0552 10.9448C15.1052 10.9948 15.1333 11.0626 15.1333 11.1333Z" stroke="white" stroke-width="1.5" stroke-linecap="round" stroke-linejoin="round"/>
<path d="M15.1333 15.4C15.1333 15.4527 15.1177 15.5043 15.0884 15.5482C15.0591 15.592 15.0174 15.6262 14.9687 15.6464C14.92 15.6665 14.8664 15.6718 14.8146 15.6615C14.7629 15.6513 14.7154 15.6259 14.6781 15.5886C14.6408 15.5513 14.6154 15.5037 14.6051 15.452C14.5948 15.4003 14.6001 15.3467 14.6203 15.2979C14.6405 15.2492 14.6747 15.2076 14.7185 15.1783C14.7624 15.149 14.8139 15.1333 14.8667 15.1333C14.9374 15.1333 15.0052 15.1614 15.0552 15.2114C15.1052 15.2614 15.1333 15.3293 15.1333 15.4Z" stroke="white" stroke-width="1.5" stroke-linecap="round" stroke-linejoin="round"/>
</svg>
