<svg width="24" height="24" viewBox="0 0 24 24" fill="none" xmlns="http://www.w3.org/2000/svg">
<g clip-path="url(#clip0_707_570)">
<path d="M10.546 2.438C10.7295 2.6417 10.9538 2.80457 11.2043 2.91605C11.4548 3.02754 11.7259 3.08514 12 3.08514C12.2742 3.08514 12.5453 3.02754 12.7958 2.91605C13.0463 2.80457 13.2705 2.6417 13.454 2.438L14.4 1.4C14.6712 1.09995 15.0285 0.891146 15.423 0.802265C15.8175 0.713384 16.2299 0.748776 16.6035 0.903585C16.9771 1.05839 17.2936 1.32503 17.5097 1.6669C17.7257 2.00877 17.8306 2.40912 17.81 2.813L17.739 4.213C17.7253 4.48611 17.7689 4.75907 17.8671 5.01429C17.9653 5.26951 18.1158 5.50134 18.309 5.69484C18.5023 5.88834 18.7339 6.03922 18.9889 6.13777C19.244 6.23631 19.5169 6.28034 19.79 6.267L21.19 6.196C21.5937 6.17611 21.9936 6.28152 22.3349 6.49779C22.6763 6.71407 22.9424 7.03062 23.0968 7.40407C23.2513 7.77752 23.2864 8.18958 23.1975 8.58379C23.1085 8.97799 22.8999 9.33504 22.6 9.606L21.558 10.546C21.3546 10.7298 21.192 10.9542 21.0806 11.2047C20.9693 11.4552 20.9118 11.7264 20.9118 12.0005C20.9118 12.2747 20.9693 12.5458 21.0806 12.7963C21.192 13.0468 21.3546 13.2712 21.558 13.455L22.6 14.395C22.9001 14.6661 23.1089 15.0235 23.1978 15.418C23.2867 15.8125 23.2513 16.2249 23.0965 16.5985C22.9417 16.9721 22.675 17.2886 22.3331 17.5046C21.9913 17.7206 21.5909 17.8256 21.187 17.805L19.787 17.734C19.5133 17.7199 19.2397 17.7635 18.9839 17.8618C18.7281 17.9601 18.4957 18.1111 18.3019 18.3049C18.1081 18.4987 17.9572 18.731 17.8588 18.9869C17.7605 19.2427 17.717 19.5163 17.731 19.79L17.802 21.19C17.8199 21.5919 17.7137 21.9895 17.4978 22.3289C17.2818 22.6682 16.9666 22.9329 16.595 23.0869C16.2234 23.2409 15.8134 23.2768 15.4207 23.1897C15.028 23.1026 14.6717 22.8967 14.4 22.6L13.459 21.559C13.2754 21.3556 13.0511 21.193 12.8006 21.0817C12.5501 20.9704 12.2791 20.9128 12.005 20.9128C11.731 20.9128 11.4599 20.9704 11.2095 21.0817C10.959 21.193 10.7347 21.3556 10.551 21.559L9.60604 22.6C9.33485 22.8981 8.97833 23.1053 8.58509 23.1934C8.19184 23.2814 7.781 23.2461 7.40858 23.0921C7.03617 22.9382 6.72029 22.6731 6.50401 22.3331C6.28774 21.993 6.18159 21.5946 6.20004 21.192L6.27204 19.792C6.28612 19.5183 6.24258 19.2447 6.14424 18.9889C6.04589 18.733 5.89494 18.5007 5.70114 18.3069C5.50734 18.1131 5.27501 17.9622 5.01919 17.8638C4.76337 17.7655 4.48975 17.7219 4.21604 17.736L2.81604 17.807C2.41233 17.8281 2.01198 17.7237 1.66998 17.5081C1.32797 17.2926 1.06108 16.9764 0.905923 16.6031C0.750771 16.2298 0.714973 15.8176 0.803445 15.4232C0.891916 15.0287 1.10032 14.6713 1.40004 14.4L2.44104 13.46C2.64449 13.2762 2.80712 13.0518 2.91843 12.8013C3.02974 12.5508 3.08726 12.2797 3.08726 12.0055C3.08726 11.7314 3.02974 11.4602 2.91843 11.2097C2.80712 10.9592 2.64449 10.7348 2.44104 10.551L1.40004 9.606C1.10129 9.33501 0.893524 8.97836 0.805142 8.58481C0.71676 8.19126 0.752077 7.78002 0.906263 7.4073C1.06045 7.03458 1.32598 6.71858 1.66656 6.50248C2.00714 6.28639 2.40615 6.18075 2.80904 6.2L4.20904 6.271C4.48327 6.28542 4.75746 6.242 5.01382 6.14354C5.27017 6.04509 5.50295 5.89382 5.69703 5.69955C5.89111 5.50528 6.04216 5.27235 6.14036 5.0159C6.23856 4.75946 6.28172 4.48522 6.26704 4.211L6.20004 2.81C6.18115 2.40727 6.28697 2.00851 6.50308 1.66815C6.71919 1.32778 7.03506 1.06238 7.40758 0.908167C7.7801 0.753953 8.19113 0.718434 8.58458 0.806457C8.97803 0.89448 9.33475 1.10176 9.60604 1.4L10.546 2.438Z" stroke="white" stroke-width="1.5" stroke-linecap="round" stroke-linejoin="round"/>
<path d="M7.5 12.001C7.5 13.1945 7.97411 14.3391 8.81802 15.183C9.66193 16.0269 10.8065 16.501 12 16.501C13.1935 16.501 14.3381 16.0269 15.182 15.183C16.0259 14.3391 16.5 13.1945 16.5 12.001C16.5 10.8075 16.0259 9.66294 15.182 8.81903C14.3381 7.97511 13.1935 7.50101 12 7.50101C10.8065 7.50101 9.66193 7.97511 8.81802 8.81903C7.97411 9.66294 7.5 10.8075 7.5 12.001V12.001Z" stroke="white" stroke-width="1.5" stroke-linecap="round" stroke-linejoin="round"/>
</g>
<defs>
<clipPath id="clip0_707_570">
<rect width="24" height="24" fill="white"/>
</clipPath>
</defs>
</svg>
